<?xml version="1.0" encoding="utf-8"?>
<!-- Generator: Adobe Illustrator 18.1.1, SVG Export Plug-In . SVG Version: 6.00 Build 0)  -->
<svg version="1.1" id="Layer_1" xmlns="http://www.w3.org/2000/svg" xmlns:xlink="http://www.w3.org/1999/xlink" x="0px" y="0px"
	 viewBox="0 0 656.7 363.6" enable-background="new 0 0 656.7 363.6" xml:space="preserve">
<g>
	<path fill="#941932" d="M155.1,75.7c0.2,0,3.2,0,3.2,0c6.8,0,12.7,6,11.6,13.6l-8.8,62.8c-5.5,0,2,0-2.5,0
		c-32.4,0-51.1-9.1-57.3-43.7c20.3,5,27.4,4.1,27.4,4.1c1.3,0.2,1.5-2.3-0.1-2.5l-4.3-0.4c-11.5-1-26.8-6.1-27.5-34.4l-0.3-7
		c10,2.8,15.8,4,26.1,5.5C138,76,147.5,75.7,155.1,75.7z"/>
	<path fill-rule="evenodd" clip-rule="evenodd" fill="#941932" d="M164.8,152.1l9.2-65.7c0.9-6.1,5.7-10.6,11.8-10.6h64.8
		c12.7,0,30.3,0.9,49.4-2c10.3-1.6,16.1-2.8,26.1-5.5l-0.2,7.5c-0.7,28.2-25.8,35.1-37.9,36.2l-8.2,0.8c-1,0.1-1.4,2.3-0.1,2.5
		c0,0,14.1,0.4,41.6-6.3c-4.4,32.3-24.8,43.2-53.8,43.2H164.8z"/>
	<path fill="#941932" d="M238.6,239.8c-19.9,0-40-12.1-37-33.7c0.2-1.1-2.2-1.5-2.5-0.1l-3.9,27.7c-25.4,0-39.3-18.7-35.4-46.4
		l4.4-31.5h72.6c7,0,12.8,6.2,11.7,13.3L238.6,239.8z"/>
	<path fill="#941932" d="M234,45c-1,0.2-1.4,2.3,0,2.5l25.2,0c-5.1,18.3-15,24.7-37.7,24.7h-34.9c-7.6,0-12.7-6.8-11.8-12.9
		l4.6-31.2c3-20.6,12.8-28,36.9-28c30.3,0,50.2,5.8,50.2,5.8l-2.2,14.7c-2.6,17.4-11.6,24.5-28,24.6L234,45z"/>
</g>
<g>
	<g>
		<path fill-rule="evenodd" clip-rule="evenodd" fill="#FFFFFF" d="M38.7,224.4L34.5,254c3.9,0.4,9.5,1,13.9,1.1
			c14.8,0.5,25.3-2,31.6-4.9c11.5-5.3,16.8-15.1,18.9-29.7c2-13.7-2.2-25.3-13.3-30.4c-5.9-2.8-13.7-4.1-23.4-4.1h-7.9
			c-4.6,0-7.5,0.5-8.7,1.4c-1.1,0.9-1.9,2.9-2.4,6L38.7,224.4z M0.4,325.4c5.4-0.5,8.2-1.3,9.8-2.9c1.5-1.6,2.7-5.3,3.6-11
			l16.4-116.3c0.7-4.8,0.4-8-0.9-9.5c-1.2-1.5-4.3-2.5-9.3-2.9l0.4-2.8h42.3c18.9,0,57.2,4.2,52.8,40.1
			c-5.3,42.8-54.5,45.4-81.7,40.3l-7.4,52.8c-0.7,5.2-0.4,8.5,1,9.8c1.4,1.3,2.6,2.4,8.3,2.4l-0.4,2.5H0L0.4,325.4z"/>
		<g>
			<path fill-rule="evenodd" clip-rule="evenodd" fill="#FFFFFF" d="M35.5,325.3c3,0,5.1-0.9,6.1-1.6c1-0.8,1.8-2.7,2.2-5.9L49,282
				c0.4-2.9,0.2-4.9-0.5-5.7c-0.8-0.9-2.7-1.5-5.7-1.7L43,273h44l-1.4,11.9h-2.1c-0.2-3.7-0.9-6-2.1-7.1c-1.2-1.1-4.3-1.6-9.2-1.6
				H60.9c-1.2,0-2,0.2-2.4,0.6c-0.3,0.4-0.6,1.1-0.7,2.2l-2.6,18.5H68c3.5,0,5.9-0.5,7-1.6c1.1-1,2.2-3.2,3.3-6.4h1.9l-2.7,19.2
				h-1.9c-0.2-3.2-0.6-5.3-1.5-6.3c-0.8-1.1-3-1.6-6.5-1.6H54.8l-2.9,20.5c-0.2,1.6,0.1,2.6,1.1,2.9c1,0.3,4.1,0.4,9.3,0.4
				c5.6,0,9.8-0.6,12.7-1.8c2.8-1.2,5.7-4.2,8.5-8.9h2.3l-5.8,14H35.1L35.5,325.3z"/>
		</g>
	</g>
	<path fill-rule="evenodd" clip-rule="evenodd" fill="#FFFFFF" d="M444,324.3c0.6,0.4,2,0.6,4,0.6c6.5,0,12-1.3,16.5-3.8
		c7-3.9,11.2-10.7,12.5-20.2c1.2-8.5-0.5-14.9-5.2-19.2c-4-3.7-9.7-5.5-17.2-5.5c-1.9,0-3.2,0.2-3.9,0.6c-0.7,0.4-1.2,1.3-1.4,2.7
		l-6,42.1C443.2,323,443.4,323.8,444,324.3z M427,326.5c3.1-0.3,5.1-0.9,6.1-1.6c1-0.8,1.8-2.7,2.2-5.9l5.3-36.8
		c0.4-3,0.3-5-0.5-5.8c-0.8-0.9-2.7-1.4-5.7-1.6l0.2-1.5H457c7.5,0,13.7,1.2,18.6,3.7c8.7,4.4,12.3,12.4,10.7,23.9
		c-0.6,4.1-2,8-4.2,11.8c-2.2,3.7-5.2,6.9-9,9.4c-2.4,1.6-4.8,2.8-7.2,3.7c-4.5,1.6-9.8,2.3-15.9,2.3h-23L427,326.5z"/>
	<path fill-rule="evenodd" clip-rule="evenodd" fill="#FFFFFF" d="M480.5,326.5c3.4-0.2,5.7-0.7,6.8-1.5c1.1-0.8,1.9-2.8,2.4-6
		l5.3-36.8c0.4-3,0.2-5-0.7-5.9c-0.9-0.9-3-1.4-6.3-1.6l0.2-1.5h24.5l-0.2,1.5c-3.4,0.2-5.7,0.7-6.8,1.6c-1.1,0.9-1.9,2.8-2.3,5.9
		L498,319c-0.5,3.2-0.2,5.2,0.6,6c0.9,0.8,3,1.3,6.3,1.5l-0.2,1.5h-24.5L480.5,326.5z"/>
	<path fill-rule="evenodd" clip-rule="evenodd" fill="#FFFFFF" d="M548.3,273.6c3,0.9,4.7,1.3,5.1,1.3c0.8,0,1.6-0.2,2.3-0.6
		c0.8-0.4,1.3-1.1,1.7-2h1.7l-1.9,18.6h-1.9c-0.6-3.7-1.6-6.7-3-8.9c-2.8-4.3-7.1-6.4-12.8-6.4c-5.8,0-10.9,2.3-15.2,6.9
		c-4.3,4.6-7.1,10.9-8.2,18.9c-1.1,7.4,0,13.3,3.2,17.7c3.3,4.4,7.8,6.6,13.8,6.6c4.3,0,8.4-1,12.3-3.1c2.2-1.2,4.8-2.9,7.6-5.3
		l1.3,1.5c-2.2,2.3-4.7,4.4-7.7,6.1c-5.1,3-10.3,4.4-15.7,4.4c-8.9,0-15.6-2.8-20-8.5c-4.1-5.3-5.5-11.8-4.4-19.7
		c1.2-8.1,4.7-14.8,10.6-20.3c6.2-5.7,13.6-8.6,22.2-8.6C542.3,272.2,545.3,272.7,548.3,273.6z"/>
	<path fill-rule="evenodd" clip-rule="evenodd" fill="#FFFFFF" d="M587.6,306.7l-6.3-22.8l-12.7,22.8H587.6z M548.8,328l0.2-1.5
		c2.2-0.2,3.9-1.1,5.1-2.4c1.3-1.4,3.6-5.1,7.1-11.2l23.1-40.6h1.6l13.9,47c0.9,3.1,1.7,5.1,2.4,5.8c0.7,0.7,2,1.2,4,1.5L606,328
		H585l0.2-1.5c2.5-0.2,4.1-0.5,4.8-0.8c0.7-0.3,1.2-1.1,1.4-2.3c0.1-0.4,0-1.1-0.1-2.1c-0.1-1-0.3-2.1-0.7-3.2l-2.3-8h-21.7
		c-2.9,5.4-4.7,8.7-5.3,9.9c-0.6,1.2-0.9,2.1-1,2.8c-0.2,1.4,0.2,2.4,1.3,2.9c0.7,0.3,1.9,0.6,3.9,0.7l-0.2,1.5H548.8z"/>
	<path fill-rule="evenodd" clip-rule="evenodd" fill="#FFFFFF" d="M606.2,326.5c3.1-0.3,5.1-0.9,6.1-1.6c1-0.8,1.8-2.7,2.2-5.9
		l5.3-36.8c0.4-2.9,0.3-4.9-0.5-5.7c-0.8-0.9-2.7-1.5-5.7-1.7l0.2-1.5h23.4l-0.2,1.5c-3.1,0.2-5.2,0.7-6.4,1.5
		c-1.1,0.8-1.9,2.6-2.3,5.4l-5.7,39.8c-0.1,0.9-0.1,1.6,0.1,2.2c0.3,0.5,0.9,0.8,1.9,1c0.6,0.1,1.2,0.1,1.9,0.2c0.7,0,2,0,3.9,0
		c7.4,0,12.4-0.6,15.2-1.8c2.8-1.2,5.7-4.3,8.9-9.3h2.1l-6.1,14.4H606L606.2,326.5z"/>
	<path fill-rule="evenodd" clip-rule="evenodd" fill="#FFFFFF" d="M117.1,297.6c4.7-1.8,7.3-5.2,8.1-10.2c0.7-4.8-0.8-8.1-4.5-9.8
		c-2-0.9-4.7-1.4-8.2-1.4c-2.3,0-3.8,0.2-4.4,0.5c-0.6,0.3-0.9,1.1-1.1,2.3l-2.9,20.4C110,299.3,114.4,298.7,117.1,297.6z
		 M84.6,326.4c3.2-0.3,5.3-0.9,6.2-1.9c0.9-0.9,1.6-3.1,2.1-6.6l5.1-35.9c0.4-2.9,0.2-4.8-0.5-5.7c-0.7-0.9-2.6-1.5-5.5-1.7l0.2-1.5
		h22.9c4.8,0,8.7,0.6,11.7,1.8c5.7,2.3,8.1,6.5,7.2,12.7c-0.6,4.1-2.4,7.3-5.4,9.5c-3,2.2-6.8,3.7-11.5,4.4l14.1,21
		c0.9,1.3,1.8,2.2,2.7,2.8c1,0.6,2.3,1,3.9,1.1l-0.2,1.5h-13.3l-16.1-25.5l-4.6,0.2l-2.3,16.3c-0.4,3.1-0.3,5,0.5,5.9
		c0.8,0.8,2.8,1.3,5.9,1.6l-0.2,1.5h-23L84.6,326.4z"/>
	<path fill-rule="evenodd" clip-rule="evenodd" fill="#FFFFFF" d="M206.5,305.7l-0.2,1.5c-1.9-0.1-3.4,0.1-4.4,0.4
		c-1,0.4-1.6,1.1-1.8,2.3c-0.1,0.4,0,0.8,0.1,1.3c0.1,0.5,0.4,1.2,0.8,2.1l9.6,18.4l14.6-18.7c0.6-0.8,1-1.4,1.2-1.9
		c0.2-0.5,0.4-0.9,0.4-1.1c0.2-1.2-0.4-2-1.6-2.3c-0.7-0.2-2-0.4-3.8-0.4l0.2-1.5h18.1l-0.2,1.5c-1.7,0.1-3.3,0.6-4.7,1.5
		c-2.3,1.4-4.9,4.1-8.1,8l-14.9,18.7l-2.3,16.1c-0.5,3.2-0.2,5.2,0.7,6c0.9,0.8,3.2,1.3,6.8,1.5l-0.2,1.5h-25.3l0.2-1.5
		c3.8-0.2,6.2-0.8,7.2-1.7c1-0.9,1.8-3.2,2.3-6.8l2.1-14.4l-8.6-15.9c-3-5.5-5.1-9-6.4-10.5c-1.3-1.6-3-2.4-5.1-2.5l0.2-1.5H206.5z"
		/>
	<path fill-rule="evenodd" clip-rule="evenodd" fill="#FFFFFF" d="M233.4,343.9c0.9,3.7,2.1,6.7,3.7,8.9c2.7,3.9,6.5,5.8,11.4,5.8
		c2.6,0,5-0.8,7.2-2.5c2.2-1.7,3.5-4,3.9-7c0.4-2.7-0.2-5-1.9-7c-1.1-1.3-3.5-3.2-7.2-5.7l-6.4-4.4c-1.9-1.3-3.4-2.7-4.5-4.1
		c-2-2.6-2.7-5.5-2.3-8.7c0.6-4.2,2.5-7.7,5.7-10.4c3.2-2.8,7.1-4.2,11.6-4.2c1.9,0,4.1,0.5,6.6,1.4c2.5,0.9,4,1.4,4.4,1.4
		c1,0,1.8-0.2,2.2-0.7c0.5-0.5,0.9-1.2,1.2-2.1h1.7l-0.7,17.6h-2c-0.6-5.3-2.2-9-4.9-11.1c-2.7-2.1-5.5-3.2-8.4-3.2
		c-2.3,0-4.3,0.7-6.2,2c-1.9,1.3-3,3.2-3.3,5.5c-0.3,2.1,0.1,4,1.2,5.5c1.1,1.5,2.9,3.1,5.3,4.8l6.6,4.5c4.2,2.8,7,5.4,8.5,7.7
		c1.5,2.4,2,5.2,1.5,8.4c-0.6,4.3-2.8,8-6.5,10.9c-3.7,2.9-8.1,4.4-13.2,4.4c-2.6,0-5.2-0.5-7.8-1.5c-2.6-1-4.2-1.5-4.6-1.5
		c-1,0-1.7,0.3-2.1,0.9c-0.4,0.6-0.7,1.2-0.9,1.9h-1.8l0.1-17.6H233.4z"/>
	<path fill-rule="evenodd" clip-rule="evenodd" fill="#FFFFFF" d="M137.8,349.1c4.6,6.5,11,9.7,19.2,9.7c4.4,0,8.5-1.4,12.1-4.2
		c3.7-2.8,5.9-6.8,6.6-11.8c0.7-4.5-0.4-8.5-3.2-11.9c-1.8-2.1-5.8-5.3-12-9.5l-10.7-7.3c-3.2-2.2-5.7-4.5-7.5-6.8
		c-3.3-4.3-4.5-9.1-3.8-14.3c1-6.9,4.1-12.7,9.4-17.3c5.2-4.6,11.7-6.9,19.3-6.9c3.1,0,6.8,0.8,10.9,2.3c4.2,1.5,6.7,2.3,7.4,2.3
		c1.7,0,3-0.4,3.8-1.3c0.8-0.8,1.5-1.9,2-3.4h2.5l-1.2,29h-2.9c-1-8.8-3.7-15-8.2-18.5c-4.5-3.5-9.2-5.3-14.1-5.3
		c-3.8,0-7.3,1.1-10.5,3.4c-3.2,2.2-5,5.4-5.6,9.4c-0.5,3.6,0.1,6.7,2,9.2c1.8,2.6,4.8,5.3,8.9,8.1l11.1,7.5
		c6.9,4.7,11.6,8.9,14.1,12.8c2.5,3.9,3.3,8.5,2.5,13.9c-1,7.2-4.6,13.2-10.7,18c-6.1,4.8-13.4,7.2-21.8,7.2c-4.2,0-8.6-0.8-13-2.4
		c-4.4-1.6-7-2.4-7.7-2.4c-1.7,0-2.9,0.5-3.7,1.6c-0.7,1-1.2,2-1.5,3.1h-2.7l0.1-29h2.8C133.1,340.5,135.1,345.5,137.8,349.1z"/>
	<g>
		<path fill-rule="evenodd" clip-rule="evenodd" fill="#FFFFFF" d="M271.8,325.5c5.3-0.6,8.8-1.9,10.6-3.8c1.8-2,3.2-6.7,4.2-14
			l8-56.1c0.7-5,0.5-8.2-0.8-9.7c-1.2-1.5-4.3-2.4-9.4-2.7l0.4-2.6h24.9l19.1,69.6l37.8-69.6h25.1l-0.4,2.6
			c-4.7,0.4-7.9,1.3-9.4,2.8c-1.6,1.5-2.7,4.7-3.4,9.6l-8.8,61.4c-0.7,5-0.5,8.3,0.6,9.7c1.2,1.4,4.1,2.7,8.7,2.7L379,328h-35.6
			l0.4-2.5c5.1-0.4,8.4-1.4,9.9-3c1.5-1.6,2.7-5.3,3.5-11.1l8.9-62L322.6,328h-1.7L300,252.6l-7.9,55.1c-1.1,7.6-0.8,12.5,0.9,14.8
			c1.1,1.5,3.9,2.5,8.4,3L301,328h-29.5L271.8,325.5z"/>
		<path fill-rule="evenodd" clip-rule="evenodd" fill="#FFFFFF" d="M377.7,325.5c3,0,5.1-0.9,6.1-1.6c1-0.8,1.8-2.7,2.2-5.9
			l5.1-35.8c0.4-2.9,0.3-4.9-0.5-5.7c-0.8-0.9-2.7-1.5-5.7-1.7l0.2-1.5h44l-1.4,11.9h-2.1c-0.2-3.7-0.9-6-2.1-7.1
			c-1.2-1.1-4.3-1.6-9.1-1.6h-11.2c-1.2,0-2,0.2-2.4,0.6c-0.3,0.4-0.6,1.1-0.7,2.2l-2.6,18.5h12.7c3.5,0,5.9-0.5,7-1.6
			c1.1-1.1,2.2-3.2,3.3-6.4h1.9l-2.7,19.2h-1.9c-0.2-3.2-0.7-5.3-1.5-6.3c-0.8-1.1-3-1.6-6.5-1.6h-12.7l-2.9,20.5
			c-0.2,1.6,0.1,2.6,1.1,2.9c1,0.3,4.1,0.4,9.3,0.4c5.6,0,9.8-0.6,12.7-1.8c2.8-1.2,5.7-4.2,8.5-8.9h2.3l-5.8,14h-44.8L377.7,325.5z
			"/>
	</g>
</g>
</svg>
